<?xml version="1.0" standalone="no"?>
<!DOCTYPE svg PUBLIC "-//W3C//DTD SVG 20010904//EN"
 "http://www.w3.org/TR/2001/REC-SVG-20010904/DTD/svg10.dtd">
<svg version="1.0" xmlns="http://www.w3.org/2000/svg"
 width="2160.000000pt" height="2160.000000pt" viewBox="0 0 2160.000000 2160.000000"
 preserveAspectRatio="xMidYMid meet">
<metadata>
Created by potrace 1.16, written by Peter Selinger 2001-2019
</metadata>
<g transform="translate(0.000000,2160.000000) scale(0.100000,-0.100000)"
fill="#000000" stroke="none">
<path d="M10410 17269 c-1396 -80 -2722 -604 -3795 -1499 -720 -600 -1328
-1392 -1718 -2235 -319 -690 -508 -1396 -584 -2180 -24 -252 -24 -857 0 -1110
176 -1821 1030 -3405 2442 -4530 916 -729 2069 -1208 3245 -1349 290 -35 413
-41 800 -41 440 0 672 16 1020 71 1784 280 3358 1277 4372 2769 573 843 943
1828 1067 2840 39 313 45 428 45 795 0 367 -6 482 -45 795 -96 787 -351 1587
-725 2276 -799 1476 -2121 2577 -3709 3092 -764 248 -1593 353 -2415 306z
m330 -394 c0 -13 -43 -15 -330 -15 -367 0 -384 -2 -420 -62 -19 -31 -20 -50
-20 -323 0 -273 1 -292 20 -323 36 -60 53 -62 420 -62 290 0 330 -2 330 -15 0
-14 -41 -15 -349 -13 -337 3 -351 4 -378 24 -15 11 -38 36 -50 54 -23 32 -23
38 -23 332 0 319 1 328 52 375 12 12 34 26 48 32 15 6 163 10 363 10 293 1
337 -1 337 -14z m840 -5 c25 -13 49 -37 67 -67 24 -42 28 -58 28 -128 0 -69
-4 -86 -28 -127 -15 -26 -37 -52 -48 -58 -19 -10 -18 -12 11 -37 102 -85 100
-292 -3 -365 -32 -23 -34 -23 -392 -23 l-360 0 -3 400 c-1 220 0 406 3 412 3
10 81 13 345 13 321 0 343 -1 380 -20z m-1870 -610 c0 -168 -1 -180 -18 -180
-28 0 -334 -77 -462 -116 -1123 -344 -2099 -1040 -2796 -1994 -590 -809 -936
-1753 -1014 -2769 -13 -174 -13 -628 0 -802 78 -1016 424 -1960 1014 -2769
808 -1106 1985 -1860 3317 -2124 552 -109 1155 -130 1724 -60 910 112 1798
468 2530 1013 701 522 1265 1199 1640 1966 308 631 481 1268 535 1974 13 174
13 628 0 802 -122 1594 -918 3021 -2210 3965 -570 416 -1223 718 -1907 880
l-163 39 0 174 0 174 43 -7 c70 -11 394 -92 522 -131 1358 -409 2520 -1319
3270 -2560 103 -170 274 -509 359 -710 80 -190 211 -574 260 -769 408 -1590
138 -3248 -751 -4601 -786 -1195 -1993 -2061 -3366 -2414 -1339 -345 -2775
-193 -4005 423 -1099 551 -2017 1469 -2568 2568 -616 1229 -768 2666 -424
4003 389 1510 1386 2803 2760 3578 478 269 981 461 1556 592 82 18 150 34 152
34 1 1 2 -80 2 -179z m618 -4876 c3 -18 12 -22 64 -28 91 -9 138 -26 180 -67
32 -30 38 -42 38 -78 0 -55 -28 -97 -145 -219 l-95 -100 63 5 c74 6 124 -7
169 -45 83 -70 75 -194 -22 -340 -52 -78 -257 -302 -276 -302 -23 0 -28 29 -9
50 14 16 16 44 15 227 0 114 -3 231 -6 259 -5 43 -9 50 -28 50 -31 -1 -32 35
-1 64 30 28 31 57 14 337 -6 100 -9 189 -5 198 8 23 40 14 44 -11z m-1582 -19
c31 -31 31 -80 -1 -80 -14 0 -21 8 -23 28 -3 24 -7 27 -41 27 -102 0 -229
-157 -292 -360 -31 -98 -34 -322 -7 -410 39 -126 113 -189 206 -175 64 9 178
65 246 121 52 42 86 52 86 25 0 -20 -116 -111 -188 -148 -64 -32 -86 -38 -151
-41 -64 -2 -82 1 -116 20 -174 101 -206 478 -64 765 96 194 266 306 345 228z
m695 -7 c10 -25 14 -111 15 -333 1 -305 8 -386 46 -577 18 -87 20 -110 9 -120
-18 -19 -36 10 -50 83 l-12 61 -32 -27 c-74 -61 -164 -74 -214 -31 -24 21 -28
31 -28 78 1 69 42 156 94 200 l38 32 -4 105 c-6 111 2 169 54 401 13 63 27
125 29 138 7 34 40 28 55 -10z m2506 -94 c15 -56 49 -311 59 -427 6 -79 6 -79
25 -58 25 26 51 27 73 2 23 -26 15 -66 -30 -148 -28 -52 -31 -63 -17 -63 37 0
100 -41 120 -78 25 -44 47 -162 34 -175 -19 -19 -39 2 -45 50 -16 114 -47 153
-121 153 l-42 0 -7 -60 c-6 -51 -10 -60 -27 -60 -18 0 -19 6 -13 203 7 218 -2
348 -37 557 -12 71 -19 136 -15 145 11 29 31 10 43 -41z m-368 -467 c43 -29
91 -93 109 -146 7 -19 12 -59 12 -90 0 -31 4 -61 8 -68 5 -8 29 -11 67 -10 47
2 60 -1 60 -13 0 -8 -11 -18 -25 -21 -77 -21 -117 -30 -135 -30 -11 0 -58 -6
-105 -14 -129 -23 -176 -20 -206 11 -20 19 -24 31 -19 52 16 65 54 97 137 114
54 11 84 6 159 -26 14 -6 15 -1 8 46 -20 124 -136 211 -219 163 -36 -20 -60
-19 -60 4 0 12 15 27 43 41 53 27 112 22 166 -13z m-2462 -29 c11 -13 26 -40
33 -62 17 -53 9 -221 -12 -261 -27 -50 -56 -75 -89 -75 -37 0 -64 40 -80 120
-6 30 -14 62 -18 70 -8 15 3 121 18 170 4 16 14 24 26 23 10 -1 30 7 43 18 32
25 54 24 79 -3z m1681 -13 c9 -117 14 -139 24 -120 27 51 138 142 158 130 20
-12 10 -41 -20 -59 -86 -50 -140 -149 -140 -256 0 -32 -3 -65 -6 -74 -8 -21
-41 -20 -48 2 -4 15 -11 382 -7 405 0 5 9 7 19 5 11 -2 18 -14 20 -33z m1900
0 c9 -117 14 -139 24 -120 27 51 138 142 158 130 20 -12 10 -41 -20 -59 -86
-50 -140 -149 -140 -256 0 -32 -3 -65 -6 -74 -8 -21 -41 -20 -48 2 -4 15 -11
382 -7 405 0 5 9 7 19 5 11 -2 18 -14 20 -33z m536 10 c14 -14 12 -22 -18 -78
-19 -34 -49 -114 -66 -177 -41 -145 -63 -191 -91 -187 -17 2 -24 -7 -35 -43
-39 -124 -57 -215 -62 -315 -6 -101 -9 -110 -27 -110 -19 0 -20 6 -19 95 2
102 21 212 59 336 l24 79 -23 65 c-13 36 -36 112 -51 169 -23 85 -25 105 -14
112 23 14 35 -10 64 -116 14 -55 31 -115 37 -134 l10 -33 44 92 c35 74 143
260 151 260 1 0 8 -7 17 -15z m-3468 -46 c55 -52 13 -150 -72 -169 -53 -12
-99 0 -99 26 0 16 6 19 42 16 41 -3 103 19 103 37 0 5 3 16 6 24 9 24 -24 47
-66 47 -59 0 -91 -33 -98 -98 -13 -139 91 -232 227 -202 44 10 55 10 62 -1 22
-37 -91 -66 -172 -45 -150 39 -223 249 -122 350 50 50 144 58 189 15z m1470 0
c55 -52 13 -150 -72 -169 -53 -12 -99 0 -99 26 0 16 6 19 42 16 41 -3 103 19
103 37 0 5 3 16 6 24 9 24 -24 47 -66 47 -59 0 -91 -33 -98 -98 -13 -139 91
-232 227 -202 44 10 55 10 62 -1 22 -37 -91 -66 -172 -45 -150 39 -223 249
-122 350 50 50 144 58 189 15z m1220 0 c55 -52 13 -150 -72 -169 -53 -12 -99
0 -99 26 0 16 6 19 42 16 41 -3 103 19 103 37 0 5 3 16 6 24 9 24 -24 47 -66
47 -59 0 -91 -33 -98 -98 -13 -139 91 -232 227 -202 44 10 55 10 62 -1 22 -37
-91 -66 -172 -45 -150 39 -223 249 -122 350 50 50 144 58 189 15z m-2343
-4481 c-47 -123 -98 -260 -115 -305 l-31 -83 -47 0 -48 0 114 301 c63 166 114
303 114 305 0 2 22 4 49 4 l49 0 -85 -222z m277 -83 l0 -255 -32 0 c-26 0 -44
11 -85 52 l-53 52 0 150 0 150 52 53 c42 43 59 53 85 53 l33 0 0 -255z m258
199 c50 -53 53 -59 50 -103 l-3 -46 -82 -3 -82 -3 -3 53 -3 53 -57 3 -58 3 0
43 c0 23 3 46 7 49 3 4 45 7 92 7 l87 0 52 -56z m292 -199 l0 -255 -85 0 -85
0 0 248 c0 137 3 252 7 255 3 4 42 7 85 7 l78 0 0 -255z m279 201 c46 -49 51
-59 51 -100 0 -33 -6 -52 -26 -76 l-27 -31 27 -28 c20 -21 26 -37 26 -71 0
-40 -5 -50 -52 -97 l-52 -53 -98 0 -98 0 0 50 0 50 60 0 60 0 0 55 0 55 -60 0
-60 0 0 45 0 45 60 0 60 0 0 55 0 55 -60 0 -60 0 0 50 0 50 99 0 98 0 52 -54z
m-1389 -104 l0 -47 -187 -49 c-104 -27 -194 -51 -200 -53 -9 -4 -13 8 -13 41
0 44 1 46 38 55 20 6 107 31 192 55 85 24 158 44 163 45 4 1 7 -20 7 -47z
m1833 -33 c43 -12 77 -23 75 -25 -2 -1 -39 -12 -83 -23 l-80 -21 -105 28
c-104 29 -105 29 -108 61 -6 62 -3 62 115 30 59 -16 143 -39 186 -50z m107
-92 l0 -44 -192 -53 c-106 -29 -197 -53 -203 -54 -12 -1 -20 74 -8 85 4 4 71
24 148 44 77 21 160 43 185 50 70 19 70 19 70 -28z m-2042 -33 c53 -14 98 -27
100 -29 2 -1 2 -23 0 -47 l-3 -45 -185 53 -185 52 45 11 c25 7 56 16 70 21 39
13 53 12 158 -16z m970 -51 c3 -28 -5 -41 -49 -88 l-53 -56 -90 3 -91 3 -3 48
-3 47 60 0 61 0 0 40 0 41 83 -3 82 -3 3 -32z"/>
<path d="M10880 16675 l0 -185 329 0 c324 0 328 0 361 23 52 35 74 80 74 156
1 79 -24 134 -74 169 -33 22 -37 22 -361 22 l-329 0 0 -185z"/>
<path d="M10880 16275 l0 -185 334 0 c329 0 333 0 366 23 49 33 70 80 70 158
0 81 -29 143 -80 170 -32 17 -62 19 -362 19 l-328 0 0 -185z"/>
<path d="M10337 11194 c3 -66 8 -150 11 -188 l7 -69 93 104 c52 57 100 117
109 133 34 64 -38 124 -162 134 l-64 5 6 -119z"/>
<path d="M10425 10853 c-11 -2 -32 -9 -47 -15 l-28 -10 1 -157 c1 -86 4 -199
8 -251 l6 -95 71 81 c130 148 174 226 174 314 0 59 -14 85 -60 113 -28 17 -94
28 -125 20z"/>
<path d="M9380 11115 c-19 -92 -25 -151 -25 -251 l0 -131 30 -34 30 -34 -3
255 c-3 336 -3 334 -32 195z"/>
<path d="M9283 10643 c-52 -55 -79 -153 -53 -193 16 -26 87 -15 142 22 26 18
48 38 48 44 0 16 -91 154 -101 154 -6 0 -22 -12 -36 -27z"/>
<path d="M11453 10525 c-35 -15 -68 -58 -58 -75 3 -5 25 -10 48 -10 62 0 197
22 197 32 0 56 -109 87 -187 53z"/>
<path d="M9052 10716 c-10 -14 -27 -45 -36 -70 -15 -38 -16 -56 -8 -108 20
-127 49 -150 87 -73 23 48 27 179 7 238 -16 43 -24 46 -50 13z"/>
</g>
</svg>
