<?xml version="1.0" standalone="no"?>
<!DOCTYPE svg PUBLIC "-//W3C//DTD SVG 20010904//EN"
 "http://www.w3.org/TR/2001/REC-SVG-20010904/DTD/svg10.dtd">
<svg version="1.0" xmlns="http://www.w3.org/2000/svg"
 width="983.000000pt" height="983.000000pt" viewBox="0 0 983.000000 983.000000"
 preserveAspectRatio="xMidYMid meet">

<g transform="translate(0.000000,983.000000) scale(0.100000,-0.100000)"
fill="#000000" stroke="none">
<path d="M4448 8973 c6 -2 18 -2 25 0 6 3 1 5 -13 5 -14 0 -19 -2 -12 -5z"/>
<path d="M5358 8973 c7 -3 16 -2 19 1 4 3 -2 6 -13 5 -11 0 -14 -3 -6 -6z"/>
<path d="M4403 8885 c-17 -7 -36 -22 -42 -34 -12 -21 -16 -417 -5 -446 4 -9
24 -25 45 -36 36 -18 56 -19 249 -17 132 2 210 7 210 13 0 6 -85 11 -229 13
l-230 2 -20 27 c-20 24 -21 39 -21 220 l0 195 29 29 29 29 226 0 c144 0 226 4
226 10 0 17 -428 12 -467 -5z"/>
<path d="M4945 8888 c-3 -7 -4 -130 -3 -273 l3 -260 217 -3 c253 -3 274 2 307
67 35 68 21 150 -32 193 l-21 16 22 19 c13 10 29 38 36 63 17 56 0 123 -40
160 -25 25 -27 25 -255 28 -183 2 -230 0 -234 -10z m465 -21 c57 -45 69 -143
24 -196 l-26 -31 -224 0 -224 0 0 120 0 120 218 0 c155 -1 221 -4 232 -13z
m19 -271 c45 -41 49 -140 9 -191 l-19 -25 -230 0 -229 0 0 113 c0 63 3 117 7
121 5 4 105 6 224 4 197 -3 219 -5 238 -22z"/>
<path d="M4055 8574 c-153 -38 -289 -76 -300 -84 -5 -4 -26 -11 -45 -15 -105
-22 -444 -172 -640 -283 -423 -239 -786 -545 -1091 -922 -118 -146 -222 -292
-275 -385 -6 -11 -33 -58 -61 -105 -131 -221 -220 -421 -320 -720 -60 -179
-112 -415 -155 -705 -17 -111 -17 -793 0 -900 46 -297 107 -580 141 -660 5
-11 19 -51 31 -90 94 -304 276 -662 494 -975 152 -217 492 -579 701 -746 272
-218 536 -382 810 -503 66 -29 129 -57 140 -62 51 -22 177 -69 186 -69 6 0 25
-7 42 -14 18 -8 59 -22 92 -31 162 -44 215 -58 275 -71 36 -7 97 -20 135 -29
213 -46 616 -72 878 -57 180 11 385 33 482 52 189 38 350 76 380 90 11 5 40
14 65 20 25 6 54 15 65 19 11 5 56 21 100 36 528 182 1076 544 1474 976 64 69
123 134 131 145 9 10 45 56 80 101 190 241 366 532 471 778 16 39 34 78 40 88
24 44 141 383 153 447 4 19 11 44 16 55 13 28 48 201 65 320 8 55 19 120 25
145 30 138 36 665 10 885 -22 192 -67 430 -110 590 -24 87 -95 308 -110 340
-5 11 -21 52 -36 90 -127 328 -366 720 -618 1015 -268 313 -661 645 -951 805
-27 15 -55 31 -61 36 -23 19 -289 151 -371 184 -48 20 -101 42 -118 50 -38 17
-248 87 -340 113 -67 19 -287 72 -300 72 -3 0 -4 -53 -3 -117 l3 -117 80 -17
c90 -18 230 -56 260 -69 11 -5 38 -14 60 -20 22 -6 49 -15 60 -20 11 -5 67
-27 125 -49 421 -162 841 -440 1185 -785 320 -320 524 -614 730 -1051 28 -58
73 -171 95 -235 12 -36 26 -74 30 -85 23 -55 71 -234 120 -443 6 -24 17 -103
25 -175 9 -73 20 -161 26 -197 25 -154 -1 -741 -41 -945 -40 -199 -106 -451
-131 -497 -5 -10 -9 -23 -9 -28 0 -30 -121 -314 -195 -457 -82 -159 -102 -194
-211 -358 -333 -506 -850 -954 -1410 -1221 -74 -35 -137 -64 -140 -64 -3 0
-20 -6 -37 -14 -109 -50 -357 -132 -485 -162 -259 -60 -399 -80 -654 -95 -309
-18 -643 4 -918 60 -152 31 -326 76 -385 101 -11 5 -38 14 -60 20 -88 26 -278
106 -429 181 -156 77 -208 107 -371 215 -384 253 -745 613 -992 989 -29 44
-56 85 -60 90 -13 16 -96 161 -142 250 -65 124 -181 391 -181 418 0 7 -6 23
-13 37 -7 14 -19 48 -27 75 -7 28 -16 55 -19 60 -7 13 -35 118 -67 255 -115
501 -111 1086 11 1598 39 164 46 188 54 202 4 8 14 39 20 68 7 28 17 55 22 58
5 3 9 12 9 21 0 23 86 234 147 362 187 388 436 725 773 1047 264 252 549 448
900 617 217 104 522 211 705 247 104 20 95 7 95 136 0 133 13 124 -135 88z"/>
<path d="M851 5394 c0 -11 3 -14 6 -6 3 7 2 16 -1 19 -3 4 -6 -2 -5 -13z"/>
<path d="M8972 5380 c0 -14 2 -19 5 -12 2 6 2 18 0 25 -3 6 -5 1 -5 -13z"/>
<path d="M3474 5280 c-111 -49 -194 -219 -194 -400 0 -175 58 -270 166 -270
46 0 152 50 192 91 38 39 32 58 -10 27 -70 -54 -125 -81 -169 -86 -57 -5 -82
7 -117 61 -26 41 -27 46 -27 182 1 113 4 146 18 170 9 17 17 33 17 37 0 4 16
32 35 62 62 97 134 133 168 84 l16 -23 0 27 c1 17 -7 33 -21 42 -27 19 -23 19
-74 -4z"/>
<path d="M4575 5129 c6 -157 6 -172 -11 -190 -17 -19 -17 -22 -3 -32 13 -10
17 -41 21 -177 3 -107 1 -171 -6 -182 -24 -39 8 -29 55 18 101 98 167 196 183
271 16 69 -51 133 -139 133 l-49 0 50 53 c85 88 104 116 104 152 0 47 -49 83
-121 92 -30 3 -58 12 -62 19 -4 8 -13 14 -19 14 -7 0 -8 -51 -3 -171z m151 86
c37 -24 30 -57 -25 -122 -26 -32 -58 -67 -70 -77 l-21 -19 0 45 c0 25 -3 80
-7 123 l-6 78 53 -6 c29 -4 63 -13 76 -22z m31 -299 c54 -47 26 -140 -80 -260
l-52 -60 -6 30 c-4 16 -7 91 -8 166 -1 153 -5 145 76 147 31 1 49 -5 70 -23z"/>
<path d="M3972 5233 c-34 -158 -41 -205 -42 -284 0 -84 -1 -87 -34 -122 -19
-20 -37 -50 -41 -67 -10 -44 -25 -37 -25 13 0 57 -17 114 -36 121 -8 3 -25 1
-37 -6 -12 -7 -29 -12 -37 -13 -11 0 -17 -16 -21 -58 -10 -95 17 -179 60 -185
27 -4 60 30 61 61 0 27 17 20 25 -10 3 -15 12 -31 18 -35 24 -15 88 -8 116 13
33 24 51 19 51 -15 0 -12 6 -30 13 -41 23 -31 29 0 13 67 -8 35 -18 79 -22 98
-4 19 -8 136 -9 260 -1 124 -5 233 -9 243 -15 32 -32 17 -44 -40z m24 -237
c-1 -129 -4 -172 -12 -165 -24 19 -36 69 -32 126 6 81 30 213 39 213 4 0 6
-78 5 -174z m-197 -173 c6 -21 11 -48 11 -60 0 -35 -31 -103 -46 -103 -35 0
-46 121 -17 171 23 39 40 36 52 -8z m174 -47 c34 -53 34 -59 0 -86 -34 -27
-96 -25 -101 3 -7 38 35 127 60 127 7 0 25 -20 41 -44z"/>
<path d="M5630 5215 c0 -14 8 -61 17 -103 13 -58 17 -126 18 -275 0 -184 6
-235 21 -169 10 49 13 52 42 52 38 0 64 -31 71 -82 8 -54 31 -64 31 -13 0 60
-45 125 -87 125 -27 0 -28 3 -8 34 21 31 35 84 28 102 -6 16 -34 19 -50 3 -7
-7 -12 7 -16 48 -11 102 -37 286 -43 294 -11 18 -24 8 -24 -16z m110 -365 c0
-5 -4 -10 -10 -10 -5 0 -10 5 -10 10 0 6 5 10 10 10 6 0 10 -4 10 -10z"/>
<path d="M5340 4922 c-29 -7 -60 -25 -60 -34 0 -5 20 -6 46 -2 72 11 121 -29
139 -114 7 -32 6 -33 -13 -23 -12 6 -45 11 -76 11 -48 0 -58 -4 -85 -31 -36
-36 -38 -49 -11 -74 17 -16 30 -17 102 -10 46 4 91 7 101 7 9 -1 17 3 17 9 0
5 12 9 28 9 33 0 57 14 48 28 -5 8 -15 8 -32 2 -40 -15 -44 -13 -44 28 0 62
-19 111 -59 151 -37 37 -71 52 -101 43z m101 -202 c41 -22 22 -38 -57 -45 -87
-9 -108 1 -75 34 23 23 97 29 132 11z"/>
<path d="M4430 4910 c-14 -4 -40 -8 -57 -9 -18 -1 -33 -6 -33 -12 0 -9 25 -10
92 -5 97 6 104 8 93 25 -7 13 -58 13 -95 1z"/>
<path d="M4882 4763 c2 -91 7 -138 14 -140 8 -3 14 17 19 55 8 70 39 130 82
157 18 11 32 26 33 33 0 24 -30 11 -75 -31 l-45 -44 0 38 c0 43 -8 69 -21 69
-6 0 -8 -58 -7 -137z"/>
<path d="M6129 4894 c-9 -18 6 -279 16 -279 5 0 14 29 18 64 9 77 26 112 72
148 34 28 46 53 24 53 -7 0 -31 -20 -55 -44 l-44 -43 0 36 c0 36 -23 83 -31
65z"/>
<path d="M6458 4839 c-19 -30 -47 -80 -62 -111 -16 -32 -31 -56 -35 -53 -4 2
-13 30 -20 62 -7 32 -17 70 -23 86 -11 29 -28 36 -28 11 0 -20 19 -103 30
-129 33 -81 33 -82 11 -151 -24 -71 -46 -226 -37 -250 9 -24 26 -16 26 14 0
54 30 223 44 251 9 16 24 31 35 34 12 3 22 17 26 38 14 65 53 176 70 203 13
19 15 30 7 38 -7 7 -20 -6 -44 -43z"/>
<path d="M4135 4861 c-37 -16 -57 -48 -57 -94 -1 -54 31 -115 73 -140 38 -21
122 -23 139 -2 15 17 12 18 -58 15 -48 -2 -55 1 -87 33 -19 19 -35 44 -35 55
0 18 5 20 33 15 21 -3 46 1 65 11 28 14 32 22 32 57 0 33 -4 41 -26 49 -30 12
-52 12 -79 1z m75 -51 c0 -31 -3 -32 -72 -43 -23 -3 -28 0 -28 16 0 32 29 57
67 57 30 0 33 -3 33 -30z"/>
<path d="M5103 4863 c-86 -17 -82 -169 6 -229 53 -36 151 -31 151 7 0 4 -24 5
-53 2 -42 -4 -60 -1 -81 12 -80 53 -73 185 10 185 39 0 51 -17 34 -49 -8 -16
-20 -21 -51 -21 -28 0 -39 -4 -37 -12 16 -46 128 1 128 52 0 44 -43 65 -107
53z"/>
<path d="M5903 4863 c-86 -17 -81 -170 7 -230 49 -34 150 -29 150 7 0 4 -24 5
-54 2 -62 -5 -89 7 -116 51 -42 68 -17 147 46 147 39 0 51 -17 34 -49 -8 -16
-20 -21 -51 -21 -28 0 -39 -4 -37 -12 16 -46 128 1 128 52 0 44 -43 65 -107
53z"/>
<path d="M8972 4450 c0 -14 2 -19 5 -12 2 6 2 18 0 25 -3 6 -5 1 -5 -13z"/>
<path d="M851 4424 c0 -11 3 -14 6 -6 3 7 2 16 -1 19 -3 4 -6 -2 -5 -13z"/>
<path d="M4437 2053 c-10 -32 -87 -238 -97 -258 -22 -46 -47 -124 -42 -129 3
-4 18 -6 34 -6 20 0 28 5 28 18 0 9 6 29 14 44 8 14 19 43 26 63 7 20 18 49
26 63 8 15 14 34 14 42 0 8 6 26 13 41 15 27 47 118 47 131 0 17 -58 8 -63 -9z"/>
<path d="M4552 1997 c-32 -33 -32 -34 -32 -133 l0 -100 39 -38 c66 -64 71 -54
71 139 l0 165 -23 0 c-13 0 -37 -14 -55 -33z"/>
<path d="M4650 1995 c0 -33 2 -35 35 -35 31 0 36 -3 42 -30 5 -28 8 -30 54
-30 49 0 49 0 49 33 0 24 -9 42 -33 65 -29 28 -39 32 -90 32 l-57 0 0 -35z"/>
<path d="M4880 1873 c0 -87 4 -164 9 -171 5 -9 25 -12 57 -10 l49 3 3 168 2
167 -60 0 -60 0 0 -157z"/>
<path d="M5022 1998 c3 -30 6 -33 41 -36 36 -3 38 -5 35 -35 -3 -29 -6 -32
-40 -35 -35 -3 -38 -6 -38 -33 0 -27 2 -29 40 -29 33 0 40 -3 40 -19 0 -38
-11 -51 -46 -51 -32 0 -34 -2 -34 -35 l0 -35 59 0 c52 0 63 4 95 32 30 27 36
38 36 73 0 22 -5 46 -11 52 -8 8 -8 17 0 31 22 41 13 86 -22 120 -30 29 -39
32 -96 32 l-62 0 3 -32z"/>
<path d="M4220 1948 c-19 -5 -64 -17 -100 -28 -36 -10 -77 -21 -92 -24 -23 -5
-28 -12 -28 -37 0 -27 3 -31 23 -26 246 62 247 62 247 92 0 31 -7 34 -50 23z"/>
<path d="M5282 1927 c3 -28 7 -32 68 -49 54 -15 73 -16 113 -7 26 6 47 14 47
18 0 4 -19 13 -42 19 -24 5 -76 19 -116 30 l-73 20 3 -31z"/>
<path d="M5445 1850 c-38 -11 -91 -24 -117 -31 -45 -10 -48 -12 -48 -44 l0
-33 93 25 c50 13 99 27 107 30 21 8 28 10 45 12 19 1 21 61 3 60 -7 0 -44 -9
-83 -19z"/>
<path d="M4075 1831 c-6 -5 -21 -11 -35 -13 -18 -3 -5 -10 50 -26 41 -12 89
-26 105 -31 80 -24 75 -25 75 11 0 34 0 34 -73 51 -83 19 -109 21 -122 8z"/>
<path d="M4725 1788 c-7 -16 -20 -24 -42 -26 -30 -3 -33 -6 -33 -38 l0 -34 55
0 c47 0 59 4 90 31 25 22 35 39 35 60 0 28 -2 29 -48 29 -39 0 -49 -4 -57 -22z"/>
<path d="M4408 853 c6 -2 18 -2 25 0 6 3 1 5 -13 5 -14 0 -19 -2 -12 -5z"/>
<path d="M5398 853 c6 -2 18 -2 25 0 6 3 1 5 -13 5 -14 0 -19 -2 -12 -5z"/>
</g>
</svg>
